<svg xmlns="http://www.w3.org/2000/svg" style="display:block;background:0 0" viewBox="0 0 280 150"><style>@keyframes colorCycle{0%{fill:#f2994a}50%{fill:#7928ca}to{fill:#eb5757}}.shape{animation:colorCycle 3s infinite linear}</style><path fill="#FF0080" d="M60.9 28.12q0 4.1-1.1 7.79-1.09 3.69-3.06 6.82-1.97 3.12-4.71 5.64-2.73 2.52-6.03 4.28-3.3 1.76-7.07 2.71-3.77.96-7.76.96H6.37V.07h24.8q3.99 0 7.74.94 3.75.93 7.05 2.67 3.3 1.74 6.05 4.24 2.76 2.5 4.73 5.61 1.97 3.1 3.06 6.79 1.1 3.7 1.1 7.8zm-15.74 0q0-4.57-1.12-8.69-1.11-4.13-3.45-7.25-2.35-3.13-5.96-4.96-3.61-1.84-8.65-1.84h-4.1v45.47h4.1q4.96 0 8.57-1.85 3.61-1.86 5.98-5 2.36-3.15 3.49-7.25 1.14-4.1 1.14-8.63" class="shape" style="animation-delay:0s" transform="translate(55 45)"/><path fill="#F2C94C" d="M129.14 28.12q0 6.79-2.34 12.24-2.35 5.45-6.49 9.24-4.14 3.79-9.8 5.82-5.67 2.03-12.27 2.03t-12.26-2.03q-5.67-2.03-9.81-5.82-4.14-3.79-6.48-9.24-2.35-5.45-2.35-12.24 0-6.92 2.33-12.37 2.32-5.45 6.44-9.22Q80.23 2.77 85.9.75q5.66-2.01 12.34-2.01T110.59.75q5.66 2.02 9.78 5.78 4.12 3.77 6.45 9.22 2.32 5.45 2.32 12.37zm-15.78 0q0-2.58-.23-5.28-.24-2.69-.86-5.23-.63-2.54-1.7-4.77-1.08-2.22-2.76-3.88-1.68-1.66-4.04-2.62-2.36-.96-5.53-.96-3.2 0-5.58.96-2.39.96-4.07 2.6-1.68 1.64-2.73 3.86-1.06 2.23-1.66 4.75-.61 2.52-.84 5.23-.23 2.72-.23 5.34 0 2.57.23 5.27.23 2.7.86 5.22.62 2.51 1.7 4.74 1.07 2.23 2.75 3.89 1.68 1.66 4.04 2.63 2.37.98 5.53.98 3.09 0 5.39-.99 2.31-1 3.99-2.7 1.68-1.7 2.79-3.95 1.11-2.24 1.76-4.76.64-2.52.92-5.18.27-2.65.27-5.15" class="shape" style="animation-delay:.5s" transform="translate(55 45)"/><path fill="#4CC9F0" d="m163.52 25.34 20.74 30.98h-15.82l-13.21-19.73-13.51 19.73h-10.94l20.31-25.86L130.78.07h15.82l12.78 19.1L173.32.07h10.94l-20.74 25.27" class="shape" style="animation-delay:1s" transform="translate(55 45)"/></svg>